# xmcd
#
# Track frame offsets:
#	150
#	19255
#	36850
#	53467
#	73742
#	92685
#	108595
#	121957
#	143357
#	162950
#	180172
#	200485
#
# Disc length: 2893 seconds
#
# Revision: 0
# Processed by: cddbd v1.4PL0 Copyright (c) Steve Scherf et al.
# Submitted via: audiograbber 1.81.01
#
DISCID=970b4b0c
DTITLE=Anna Oxa - I Grandi Successi Originali cd1
DYEAR=1900
DGENRE=pop
TTITLE0=Un'emozione da poco
TTITLE1=Così se ti vàè questo finchè mi andrà
TTITLE2=Dove (It's Over)
TTITLE3=Se devo andare via
TTITLE4=Questa è vita (Livin' Thing)
TTITLE5=Fatelo con me
TTITLE6=Un'altra me (The Other Side Of Me)
TTITLE7=La sonambula
TTITLE8=Metropolitana
TTITLE9=Tango
TTITLE10=Tea party
TTITLE11=Toledo
EXTD=
EXTT0=
EXTT1=
EXTT2=
EXTT3=
EXTT4=
EXTT5=
EXTT6=
EXTT7=
EXTT8=
EXTT9=
EXTT10=
EXTT11=
PLAYORDER=
